<svg xmlns="http://www.w3.org/2000/svg" width="13.495" height="13.397" viewBox="0 0 13.495 13.397">
  <path id="Icon_awesome-key" data-name="Icon awesome-key" d="M13.5,4.605A4.622,4.622,0,0,1,8.856,9.21a4.7,4.7,0,0,1-.865-.08l-.633.707a.635.635,0,0,1-.473.211H5.9v1.047a.63.63,0,0,1-.633.628H4.217v1.047a.63.63,0,0,1-.633.628H.633A.63.63,0,0,1,0,12.769V10.726a.626.626,0,0,1,.185-.444L4.45,6.049a4.57,4.57,0,0,1-.233-1.444,4.639,4.639,0,0,1,9.278,0ZM8.856,3.349a1.265,1.265,0,1,0,1.265-1.256A1.261,1.261,0,0,0,8.856,3.349Z" fill="#5a5a5a"/>
</svg>
